<svg width="789" height="788" viewBox="0 0 789 788" fill="none" xmlns="http://www.w3.org/2000/svg">
<g clip-path="url(#clip0_122_43)">
<path d="M759.003 10.9138L29.9165 10.9138C19.4231 10.9138 10.9165 19.4204 10.9165 29.9138L10.9165 759C10.9165 769.493 19.4231 778 29.9165 778H759.003C769.496 778 778.003 769.493 778.003 759V29.9138C778.003 19.4204 769.496 10.9138 759.003 10.9138Z" fill="#FFEB75" stroke="#FFEB75" stroke-width="20"/>
<g filter="url(#filter0_d_122_43)">
<path d="M265.477 576.144C268.725 586.709 263.159 597.753 253.104 600.843C243.049 603.934 232.241 597.922 228.994 587.357C225.747 576.792 231.313 565.748 241.368 562.657C251.423 559.567 262.23 565.579 265.477 576.144Z" fill="black" stroke="black"/>
<path d="M232.688 581.572C235.935 592.137 230.37 603.181 220.315 606.271C210.26 609.362 199.452 603.35 196.205 592.785C192.958 582.22 198.524 571.176 208.579 568.086C218.633 564.995 229.441 571.007 232.688 581.572Z" fill="black" stroke="black"/>
<path d="M719.994 430.868C723.241 441.433 717.675 452.477 707.62 455.567C697.565 458.657 686.757 452.646 683.51 442.081C680.263 431.516 685.829 420.471 695.884 417.381C705.939 414.291 716.747 420.303 719.994 430.868Z" fill="black" stroke="black"/>
<rect x="127.665" y="292.329" width="24.2944" height="299.428" rx="11.5" transform="rotate(-17.0843 127.665 292.329)" fill="black" stroke="black"/>
<rect x="197.606" y="490.128" width="24.2946" height="474.357" transform="rotate(-107.084 197.606 490.128)" fill="black" stroke="black"/>
<rect x="134.681" y="310.859" width="24.2946" height="493.941" rx="11.5" transform="rotate(-107.084 134.681 310.859)" fill="black" stroke="black"/>
<path d="M439.501 72.3163C444.642 70.7363 449.542 69.1776 454.267 67.6746C460.723 65.6211 466.851 63.6718 472.818 61.9148C483.041 58.9044 491.912 56.7355 499.45 55.9773C507.032 55.2147 512.431 55.9734 516.253 57.9786C519.795 59.8367 522.96 63.2803 525.085 70.195L591.379 285.896C593.505 292.814 592.787 297.328 590.923 300.712C588.895 304.393 584.858 307.934 578.097 311.445C571.384 314.932 562.775 317.992 552.57 321.148C547.529 322.707 542.201 324.259 536.603 325.89L536.509 325.917C530.897 327.552 525.028 329.262 519.037 331.104L304.885 396.921C298.893 398.763 293.077 400.644 287.515 402.443L287.423 402.473C281.875 404.268 276.595 405.976 271.548 407.517C261.332 410.638 252.491 412.941 244.978 413.826C237.413 414.718 232.084 414.056 228.338 412.149C224.895 410.396 221.766 407.064 219.64 400.147L153.346 184.446C151.221 177.531 151.905 172.904 153.792 169.378C155.829 165.572 159.87 161.912 166.571 158.284C173.234 154.679 181.792 151.491 191.941 148.24C197.865 146.342 204.03 144.513 210.524 142.587C215.278 141.177 220.208 139.714 225.349 138.134L439.501 72.3163Z" fill="#23BF9A" stroke="black" stroke-width="15"/>
<rect x="584.111" y="149.95" width="24.2944" height="301.343" rx="11.5" transform="rotate(-17.0843 584.111 149.95)" fill="black" stroke="black"/>
<path d="M687.202 436.291C690.449 446.856 684.883 457.901 674.828 460.991C664.773 464.081 653.966 458.069 650.718 447.504C647.471 436.939 653.037 425.895 663.092 422.805C673.147 419.715 683.955 425.726 687.202 436.291Z" fill="black" stroke="black"/>
</g>
<path d="M353.42 698.432C351.77 696.262 351.968 693.64 353.961 691.112C354.924 689.89 359.56 687.46 358.052 688.238C355.562 689.522 358.288 687.875 360.461 686.602C366.255 683.206 374.998 680.362 382.85 678.495C410.757 671.862 475.559 650.29 491.357 627.719C498.572 617.411 482.588 611.353 474.4 608.448C453.966 601.199 418.034 599.5 411.603 578.519C406.257 561.079 430.516 544.478 447.603 534.598C491.944 508.961 546.619 489.292 595.66 475.424C604.092 473.04 609.23 481.269 601.541 486.163C591.892 492.304 573.118 495.61 561.769 499.554C527.143 511.586 454.533 536.703 432.009 562.854C421 575.635 437.479 582.352 448.882 585.942C469.415 592.408 518.311 597.518 509.973 625.225C500.943 655.231 428.533 677.688 398.37 689.66C382.144 696.1 358.886 705.62 353.42 698.432Z" fill="black"/>
<path d="M73.1003 721.875C65.4347 720.809 62.6083 715.091 68.3679 712.339C84.6165 704.577 122.196 690.888 127.177 673.925C131.95 657.671 83.743 657.155 71.3667 644.112C63.2059 635.512 71.7062 626.981 81.1767 621.248C101.224 609.114 132.068 600.388 157.211 594.386C166.431 592.185 175.314 599.951 167.004 603.555C147.629 611.958 91.0477 619.229 85.2755 636.598C83.46 642.062 98.1878 645.458 104.476 646.94C121.691 650.997 141.097 657.107 144.098 669.27C148.559 687.351 119.217 701.317 100.801 711.909C93.3323 716.205 81.2169 723.004 73.1003 721.875Z" fill="black"/>
</g>
<defs>
<filter id="filter0_d_122_43" x="125.911" y="48.1861" width="599.509" height="567.397" filterUnits="userSpaceOnUse" color-interpolation-filters="sRGB">
<feFlood flood-opacity="0" result="BackgroundImageFix"/>
<feColorMatrix in="SourceAlpha" type="matrix" values="0 0 0 0 0 0 0 0 0 0 0 0 0 0 0 0 0 0 127 0" result="hardAlpha"/>
<feOffset dy="4"/>
<feGaussianBlur stdDeviation="2"/>
<feComposite in2="hardAlpha" operator="out"/>
<feColorMatrix type="matrix" values="0 0 0 0 0 0 0 0 0 0 0 0 0 0 0 0 0 0 0.25 0"/>
<feBlend mode="normal" in2="BackgroundImageFix" result="effect1_dropShadow_122_43"/>
<feBlend mode="normal" in="SourceGraphic" in2="effect1_dropShadow_122_43" result="shape"/>
</filter>
<clipPath id="clip0_122_43">
<rect width="789" height="788" fill="white"/>
</clipPath>
</defs>
</svg>
