<svg width="789" height="788" viewBox="0 0 789 788" fill="none" xmlns="http://www.w3.org/2000/svg">
<g clip-path="url(#clip0_94_341)">
<path d="M29.9165 10.9138C19.4231 10.9138 10.9165 19.4204 10.9165 29.9138L10.9165 759C10.9165 769.493 19.4231 778 29.9165 778H759.003C769.496 778 778.003 769.493 778.003 759V29.9138C778.003 19.4204 769.496 10.9138 759.003 10.9138L29.9165 10.9138Z" fill="#FFEB75" stroke="black" stroke-width="20"/>
<g filter="url(#filter0_d_94_341)">
<path d="M286.557 485.093C289.041 493.177 284.787 501.657 277.054 504.034C269.322 506.41 261.039 501.783 258.554 493.699C256.07 485.615 260.324 477.135 268.057 474.758C275.79 472.382 284.072 477.009 286.557 485.093Z" fill="black"/>
<ellipse cx="248.031" cy="493.456" rx="14.6475" ry="15.3134" transform="rotate(-17.0843 248.031 493.456)" fill="black"/>
<path d="M626.507 376.436C628.991 384.52 624.737 393 617.004 395.376C609.271 397.753 600.989 393.126 598.504 385.042C596.02 376.958 600.274 368.478 608.007 366.101C615.739 363.724 624.022 368.351 626.507 376.436Z" fill="black"/>
<rect x="182.657" y="272.681" width="18.9186" height="224.7" rx="9.4593" transform="rotate(-17.0843 182.657 272.681)" fill="black"/>
<rect x="235.519" y="420.711" width="17.9187" height="354.537" transform="rotate(-107.084 235.519 420.711)" fill="black" stroke="black"/>
<rect x="188.124" y="287.255" width="18.9187" height="370.185" rx="9.45933" transform="rotate(-107.084 188.124 287.255)" fill="black"/>
<path d="M416.913 110.18C420.802 108.985 424.478 107.816 428.011 106.692C432.815 105.164 437.356 103.719 441.811 102.407C449.433 100.163 455.93 98.5824 461.385 98.0336C466.885 97.4804 470.495 98.0693 472.886 99.3236C474.996 100.431 477.087 102.542 478.562 107.342L528.146 268.672C529.622 273.475 529.049 276.301 527.956 278.285C526.699 280.568 524.057 282.998 519.148 285.548C514.285 288.073 507.982 290.321 500.368 292.676C496.614 293.837 492.643 294.994 488.452 296.215L488.385 296.235C484.189 297.457 479.786 298.74 475.29 300.122L315.118 349.349C310.622 350.731 306.259 352.142 302.1 353.487L302.034 353.509C297.88 354.853 293.945 356.126 290.188 357.273C282.564 359.602 276.087 361.281 270.645 361.923C265.151 362.57 261.601 362.043 259.279 360.861C257.26 359.833 255.199 357.816 253.723 353.013L204.139 191.683C202.664 186.884 203.209 183.962 204.333 181.861C205.607 179.48 208.263 176.966 213.124 174.334C217.946 171.725 224.209 169.383 231.775 166.96C236.199 165.543 240.767 164.188 245.6 162.754C249.155 161.7 252.852 160.603 256.741 159.408L416.913 110.18Z" fill="#23BF9A" stroke="black" stroke-width="15"/>
<rect x="524.05" y="166.19" width="18.9186" height="226.132" rx="9.4593" transform="rotate(-17.0843 524.05 166.19)" fill="black"/>
<ellipse cx="587.978" cy="384.795" rx="14.6475" ry="15.3134" transform="rotate(-17.0843 587.978 384.795)" fill="black"/>
</g>
<path d="M308.313 711.766C306.664 708.909 306.862 705.455 308.854 702.126C309.816 700.517 314.449 697.317 312.942 698.341C310.454 700.033 313.178 697.864 315.35 696.187C321.141 691.715 329.88 687.969 337.728 685.511C365.621 676.776 430.389 648.366 446.179 618.642C453.39 605.067 437.415 597.088 429.231 593.263C408.807 583.716 372.894 581.479 366.466 553.848C361.123 530.881 385.369 509.018 402.447 496.007C446.766 462.244 501.413 436.341 550.429 418.078C558.857 414.937 563.992 425.775 556.307 432.221C546.663 440.308 527.898 444.662 516.555 449.855C481.947 465.7 409.374 498.779 386.862 533.218C375.859 550.05 392.329 558.895 403.727 563.624C424.248 572.138 473.119 578.869 464.785 615.357C455.76 654.872 383.388 684.448 353.24 700.214C337.022 708.695 313.776 721.233 308.313 711.766Z" fill="black"/>
<path d="M117.169 713.801C109.508 712.092 106.684 702.926 112.44 698.516C128.679 686.073 166.236 664.132 171.214 636.943C175.984 610.89 127.806 610.063 115.437 589.156C107.281 575.371 115.776 561.697 125.241 552.509C145.277 533.059 176.102 519.072 201.23 509.452C210.445 505.925 219.322 518.372 211.017 524.149C191.654 537.618 135.106 549.272 129.337 577.113C127.523 585.87 142.242 591.314 148.526 593.689C165.731 600.192 185.125 609.985 188.124 629.481C192.583 658.463 163.259 680.849 144.854 697.826C137.389 704.711 125.281 715.61 117.169 713.801Z" fill="black"/>
<path d="M206.054 578.433C208.402 578.019 210.565 581.42 212.544 588.636L214.528 596.456C215.58 602.424 217.246 618.167 219.527 643.688L220.408 643.532L220.485 643.973L220.995 643.429L222.168 643.222L239.569 641.515L240.743 641.308L247.692 637.814L248.719 637.633C250.457 638.335 251.774 639.515 252.672 641.172C253.327 644.889 249.575 647.921 241.415 650.268L226.19 651.44L223.402 651.931L216.695 655.081C213.881 654.568 212.284 653.236 211.905 651.084L206.112 600.21L205.723 598.009L202.256 583.49C201.824 581.045 203.091 579.359 206.054 578.433ZM252.694 563.703C255.042 563.289 256.774 564.245 257.89 566.57L258.536 575.382L259.027 578.17C265.044 597.989 269.337 613.471 271.907 624.617C274.829 634.895 276.877 639.93 278.051 639.723C278.413 641.777 276.934 643.4 273.614 644.59C268.722 645.453 264.535 636.004 261.05 616.243L250.215 578.816L249.982 577.496C248.464 568.887 249.368 564.29 252.694 563.703ZM297.683 540.187L300.031 539.773C315.976 536.961 327.216 540.93 333.752 551.68L335.02 556.298L335.278 557.765C337.279 569.113 332.237 580.845 320.151 592.962C316.998 594.527 315.525 595.896 315.732 597.07C322.284 611.347 326.396 623.23 328.069 632.719L328.406 634.627C329.096 638.539 327.827 640.781 324.598 641.35C322.101 641.488 320.663 640.48 320.283 638.328L319.636 634.66C317.653 623.41 313.442 611.544 307.005 599.062C298.961 599.775 294.179 598.399 292.66 594.935L292.505 594.054C292.195 592.293 293.323 590.682 295.889 589.221L302.734 590.284L302.682 589.99C296.803 576.099 293.415 566.61 292.518 561.523C292.018 558.686 293.431 556.974 296.757 556.388C299.79 555.853 302.22 560.77 304.048 571.14L311.383 587.851C318.012 584.261 322.68 578.698 325.385 571.16C326.749 566.885 327.164 563.231 326.629 560.198L326.293 558.291C324.879 550.269 317.229 546.928 303.344 548.266L297.328 549.327C284.184 553.158 278.044 557.519 278.907 562.41L279.062 563.29C279.32 564.758 280.508 566.918 282.626 569.773C283.005 571.925 281.535 573.596 278.214 574.787C273.974 573.618 271.344 570.148 270.327 564.377C268.429 553.616 277.548 545.553 297.683 540.187Z" fill="black"/>
<path d="M206.054 578.433L205.533 575.479L205.343 575.512L205.159 575.569L206.054 578.433ZM212.544 588.636L215.451 587.898L215.444 587.871L215.437 587.843L212.544 588.636ZM214.528 596.456L217.482 595.935L217.463 595.826L217.435 595.719L214.528 596.456ZM219.527 643.688L216.539 643.955L216.83 647.21L220.048 646.642L219.527 643.688ZM220.408 643.532L223.362 643.012L222.841 640.057L219.887 640.578L220.408 643.532ZM220.485 643.973L217.531 644.494L218.573 650.402L222.675 646.024L220.485 643.973ZM220.995 643.429L220.474 640.475L219.489 640.648L218.805 641.378L220.995 643.429ZM222.168 643.222L221.876 640.236L221.761 640.248L221.648 640.268L222.168 643.222ZM239.569 641.515L239.862 644.501L239.977 644.49L240.09 644.47L239.569 641.515ZM240.743 641.308L241.264 644.263L241.698 644.186L242.091 643.989L240.743 641.308ZM247.692 637.814L247.171 634.859L246.738 634.936L246.344 635.134L247.692 637.814ZM248.719 637.633L249.843 634.851L249.046 634.529L248.198 634.678L248.719 637.633ZM252.672 641.172L255.626 640.651L255.542 640.172L255.31 639.744L252.672 641.172ZM241.415 650.268L241.646 653.259L241.951 653.236L242.245 653.151L241.415 650.268ZM226.19 651.44L225.959 648.448L225.813 648.46L225.669 648.485L226.19 651.44ZM223.402 651.931L222.881 648.977L222.488 649.046L222.126 649.216L223.402 651.931ZM216.695 655.081L216.157 658.032L217.101 658.204L217.97 657.796L216.695 655.081ZM211.905 651.084L208.924 651.423L208.934 651.514L208.95 651.605L211.905 651.084ZM206.112 600.21L209.092 599.87L209.082 599.779L209.066 599.689L206.112 600.21ZM205.723 598.009L208.678 597.488L208.662 597.399L208.641 597.312L205.723 598.009ZM202.256 583.49L199.301 584.011L199.317 584.1L199.338 584.187L202.256 583.49ZM206.575 581.387C205.854 581.515 205.983 580.833 206.906 582.283C207.744 583.6 208.685 585.908 209.65 589.429L215.437 587.843C214.424 584.148 213.294 581.147 211.969 579.063C210.728 577.113 208.602 574.937 205.533 575.479L206.575 581.387ZM209.636 589.374L211.62 597.194L217.435 595.719L215.451 587.898L209.636 589.374ZM211.573 596.977C212.598 602.789 214.254 618.382 216.539 643.955L222.515 643.421C220.239 617.953 218.562 602.059 217.482 595.935L211.573 596.977ZM220.048 646.642L220.929 646.487L219.887 640.578L219.006 640.733L220.048 646.642ZM217.453 644.053L217.531 644.494L223.44 643.452L223.362 643.012L217.453 644.053ZM222.675 646.024L223.184 645.48L218.805 641.378L218.296 641.922L222.675 646.024ZM221.516 646.383L222.689 646.176L221.648 640.268L220.474 640.475L221.516 646.383ZM222.461 646.208L239.862 644.501L239.277 638.53L221.876 640.236L222.461 646.208ZM240.09 644.47L241.264 644.263L240.222 638.354L239.049 638.561L240.09 644.47ZM242.091 643.989L249.04 640.494L246.344 635.134L239.395 638.628L242.091 643.989ZM248.213 640.768L249.24 640.587L248.198 634.678L247.171 634.859L248.213 640.768ZM247.595 640.414C248.682 640.853 249.466 641.553 250.034 642.6L255.31 639.744C254.083 637.477 252.232 635.816 249.843 634.851L247.595 640.414ZM249.717 641.693C249.801 642.168 249.766 642.848 248.464 643.901C247.052 645.041 244.529 646.251 240.586 647.385L242.245 653.151C246.461 651.938 249.895 650.459 252.235 648.567C254.685 646.588 256.198 643.893 255.626 640.651L249.717 641.693ZM241.185 647.277L225.959 648.448L226.42 654.431L241.646 653.259L241.185 647.277ZM225.669 648.485L222.881 648.977L223.922 654.886L226.71 654.394L225.669 648.485ZM222.126 649.216L215.419 652.365L217.97 657.796L224.677 654.647L222.126 649.216ZM217.232 652.129C216.152 651.933 215.588 651.626 215.309 651.394C215.084 651.206 214.933 650.98 214.859 650.563L208.95 651.605C209.256 653.34 210.093 654.856 211.465 656C212.782 657.1 214.423 657.716 216.157 658.032L217.232 652.129ZM214.885 650.744L209.092 599.87L203.131 600.549L208.924 651.423L214.885 650.744ZM209.066 599.689L208.678 597.488L202.769 598.53L203.157 600.731L209.066 599.689ZM208.641 597.312L205.174 582.793L199.338 584.187L202.806 598.706L208.641 597.312ZM205.21 582.969C205.111 582.406 205.235 582.254 205.281 582.193C205.396 582.04 205.797 581.656 206.949 581.296L205.159 575.569C203.348 576.136 201.634 577.057 200.483 578.59C199.262 580.215 198.969 582.129 199.301 584.011L205.21 582.969ZM257.89 566.57L260.882 566.35L260.84 565.784L260.594 565.271L257.89 566.57ZM258.536 575.382L255.544 575.602L255.555 575.753L255.581 575.903L258.536 575.382ZM259.027 578.17L256.073 578.691L256.104 578.869L256.157 579.042L259.027 578.17ZM271.907 624.617L268.984 625.291L269.001 625.365L269.022 625.438L271.907 624.617ZM278.051 639.723L281.005 639.202L280.484 636.248L277.53 636.769L278.051 639.723ZM273.614 644.59L274.135 647.545L274.386 647.501L274.626 647.414L273.614 644.59ZM261.05 616.243L264.005 615.722L263.977 615.564L263.932 615.409L261.05 616.243ZM250.215 578.816L247.26 579.337L247.288 579.496L247.333 579.651L250.215 578.816ZM253.215 566.658C253.858 566.544 254.155 566.654 254.305 566.736C254.479 566.833 254.816 567.098 255.185 567.868L260.594 565.271C259.848 563.716 258.76 562.342 257.203 561.483C255.621 560.61 253.878 560.448 252.173 560.749L253.215 566.658ZM254.898 566.789L255.544 575.602L261.528 575.163L260.882 566.35L254.898 566.789ZM255.581 575.903L256.073 578.691L261.982 577.649L261.49 574.861L255.581 575.903ZM256.157 579.042C262.166 598.838 266.436 614.244 268.984 625.291L274.831 623.943C272.237 612.698 267.921 597.139 261.898 577.299L256.157 579.042ZM269.022 625.438C270.49 630.602 271.768 634.558 272.856 637.232C273.39 638.546 273.938 639.701 274.511 640.56C274.791 640.98 275.181 641.49 275.706 641.906C276.22 642.313 277.237 642.913 278.572 642.677L277.53 636.769C278.571 636.585 279.268 637.073 279.433 637.204C279.61 637.344 279.625 637.414 279.502 637.23C279.27 636.882 278.903 636.175 278.414 634.972C277.453 632.611 276.247 628.91 274.793 623.797L269.022 625.438ZM275.096 640.244C275.112 640.334 275.098 640.34 275.107 640.311C275.114 640.287 275.108 640.336 274.996 640.46C274.728 640.753 274.05 641.247 272.601 641.767L274.626 647.414C276.497 646.743 278.219 645.83 279.43 644.502C280.758 643.045 281.358 641.199 281.005 639.202L275.096 640.244ZM273.093 641.636C273.043 641.645 272.781 641.732 272.139 641.124C271.421 640.445 270.525 639.141 269.547 636.935C267.605 632.553 265.736 625.543 264.005 615.722L258.096 616.764C259.849 626.704 261.816 634.299 264.062 639.366C265.178 641.885 266.464 644.016 268.016 645.483C269.643 647.022 271.738 647.967 274.135 647.545L273.093 641.636ZM263.932 615.409L253.096 577.982L247.333 579.651L258.169 617.078L263.932 615.409ZM253.169 578.295L252.936 576.975L247.027 578.017L247.26 579.337L253.169 578.295ZM252.936 576.975C252.196 572.775 252.122 569.915 252.465 568.17C252.632 567.321 252.86 566.936 252.978 566.792C253.047 566.707 253.084 566.681 253.215 566.658L252.173 560.749C250.64 561.019 249.318 561.787 248.329 562.998C247.389 564.15 246.863 565.562 246.578 567.012C246.017 569.865 246.25 573.608 247.027 578.017L252.936 576.975ZM297.683 540.187L297.162 537.232L297.035 537.255L296.91 537.288L297.683 540.187ZM333.752 551.68L336.644 550.886L336.533 550.481L336.315 550.122L333.752 551.68ZM335.02 556.298L337.974 555.777L337.95 555.639L337.913 555.504L335.02 556.298ZM320.151 592.962L321.485 595.649L321.927 595.43L322.275 595.08L320.151 592.962ZM315.732 597.07L312.777 597.591L312.844 597.971L313.005 598.321L315.732 597.07ZM324.598 641.35L324.764 644.345L324.943 644.335L325.119 644.304L324.598 641.35ZM307.005 599.062L309.671 597.687L308.748 595.896L306.74 596.074L307.005 599.062ZM292.66 594.935L289.706 595.456L289.768 595.81L289.913 596.139L292.66 594.935ZM295.889 589.221L296.349 586.257L295.315 586.096L294.405 586.614L295.889 589.221ZM302.734 590.284L302.274 593.248L306.416 593.891L305.688 589.763L302.734 590.284ZM302.682 589.99L305.636 589.469L305.577 589.134L305.445 588.821L302.682 589.99ZM304.048 571.14L301.094 571.661L301.157 572.015L301.301 572.345L304.048 571.14ZM311.383 587.851L308.636 589.057L309.945 592.041L312.811 590.489L311.383 587.851ZM325.385 571.16L328.209 572.173L328.227 572.123L328.243 572.072L325.385 571.16ZM303.344 548.266L303.056 545.28L302.939 545.292L302.823 545.312L303.344 548.266ZM297.328 549.327L296.807 546.373L296.645 546.401L296.488 546.447L297.328 549.327ZM282.626 569.773L285.58 569.252L285.457 568.554L285.035 567.986L282.626 569.773ZM278.214 574.787L277.417 577.679L278.333 577.932L279.227 577.611L278.214 574.787ZM298.204 543.141L300.551 542.727L299.51 536.818L297.162 537.232L298.204 543.141ZM300.551 542.727C308.19 541.38 314.432 541.708 319.421 543.47C324.351 545.21 328.258 548.419 331.188 553.239L336.315 550.122C332.709 544.191 327.729 540.04 321.419 537.812C315.167 535.605 307.816 535.354 299.51 536.818L300.551 542.727ZM330.859 552.475L332.127 557.092L337.913 555.504L336.644 550.886L330.859 552.475ZM332.065 556.819L332.324 558.286L338.233 557.244L337.974 555.777L332.065 556.819ZM332.324 558.286C334.084 568.267 329.775 579.065 318.027 590.843L322.275 595.08C334.699 582.625 340.475 569.959 338.233 557.244L332.324 558.286ZM318.818 590.274C317.145 591.104 315.688 591.99 314.639 592.965C313.675 593.861 312.402 595.462 312.777 597.591L318.686 596.549C318.854 597.503 318.214 597.833 318.724 597.36C319.148 596.966 320.004 596.384 321.485 595.649L318.818 590.274ZM313.005 598.321C319.508 612.492 323.505 624.111 325.115 633.24L331.024 632.198C329.287 622.349 325.059 610.202 318.458 595.818L313.005 598.321ZM325.115 633.24L325.451 635.147L331.36 634.106L331.024 632.198L325.115 633.24ZM325.451 635.147C325.738 636.772 325.509 637.502 325.361 637.764C325.283 637.901 325.07 638.22 324.078 638.395L325.119 644.304C327.355 643.91 329.39 642.824 330.582 640.72C331.703 638.741 331.764 636.394 331.36 634.106L325.451 635.147ZM324.433 638.354C323.578 638.402 323.345 638.224 323.367 638.24C323.382 638.25 323.383 638.26 323.367 638.231C323.344 638.192 323.284 638.069 323.238 637.807L317.329 638.849C317.621 640.506 318.404 642.089 319.926 643.155C321.387 644.178 323.122 644.436 324.764 644.345L324.433 638.354ZM323.238 637.807L322.591 634.139L316.682 635.181L317.329 638.849L323.238 637.807ZM322.591 634.139C320.544 622.532 316.217 610.379 309.671 597.687L304.339 600.437C310.668 612.71 314.761 624.288 316.682 635.181L322.591 634.139ZM306.74 596.074C302.886 596.415 300.098 596.224 298.215 595.682C296.392 595.157 295.704 594.405 295.408 593.73L289.913 596.139C291.136 598.929 293.597 600.596 296.556 601.448C299.454 602.282 303.08 602.422 307.27 602.051L306.74 596.074ZM295.615 594.414L295.46 593.533L289.551 594.575L289.706 595.456L295.615 594.414ZM295.46 593.533C295.457 593.518 295.418 593.471 295.576 593.246C295.79 592.941 296.3 592.44 297.374 591.828L294.405 586.614C291.551 588.239 288.893 590.844 289.551 594.575L295.46 593.533ZM295.429 592.186L302.274 593.248L303.194 587.319L296.349 586.257L295.429 592.186ZM305.688 589.763L305.636 589.469L299.728 590.511L299.779 590.805L305.688 589.763ZM305.445 588.821C299.546 574.882 296.301 565.7 295.473 561.002L289.564 562.044C290.529 567.519 294.061 577.316 299.919 591.159L305.445 588.821ZM295.473 561.002C295.397 560.575 295.418 560.322 295.443 560.196C295.465 560.09 295.492 560.05 295.516 560.021C295.584 559.94 295.966 559.573 297.278 559.342L296.236 553.433C294.222 553.788 292.235 554.571 290.889 556.201C289.467 557.924 289.21 560.036 289.564 562.044L295.473 561.002ZM297.278 559.342C297.064 559.38 296.929 559.259 297.041 559.349C297.244 559.512 297.653 559.968 298.165 561.004C299.186 563.069 300.193 566.549 301.094 571.661L307.003 570.619C306.076 565.361 304.953 561.197 303.544 558.345C302.841 556.923 301.959 555.602 300.796 554.669C299.542 553.663 297.966 553.128 296.236 553.433L297.278 559.342ZM301.301 572.345L308.636 589.057L314.13 586.645L306.795 569.934L301.301 572.345ZM312.811 590.489C320.132 586.525 325.271 580.359 328.209 572.173L322.561 570.146C320.088 577.037 315.892 581.998 309.954 585.213L312.811 590.489ZM328.243 572.072C329.692 567.531 330.233 563.357 329.584 559.677L323.675 560.719C324.096 563.105 323.806 566.239 322.527 570.248L328.243 572.072ZM329.584 559.677L329.248 557.77L323.339 558.812L323.675 560.719L329.584 559.677ZM329.248 557.77C328.361 552.74 325.414 549.08 320.696 547.019C316.187 545.05 310.205 544.591 303.056 545.28L303.632 551.253C310.367 550.603 315.153 551.145 318.294 552.518C321.226 553.798 322.811 555.82 323.339 558.812L329.248 557.77ZM302.823 545.312L296.807 546.373L297.849 552.282L303.865 551.221L302.823 545.312ZM296.488 546.447C289.813 548.393 284.609 550.553 281.128 553.025C277.66 555.487 275.225 558.806 275.952 562.931L281.861 561.889C281.726 561.123 281.929 559.815 284.602 557.917C287.261 556.028 291.699 554.093 298.167 552.207L296.488 546.447ZM275.952 562.931L276.107 563.811L282.016 562.769L281.861 561.889L275.952 562.931ZM276.107 563.811C276.502 566.047 278.105 568.714 280.216 571.56L285.035 567.986C282.912 565.123 282.139 563.468 282.016 562.769L276.107 563.811ZM279.671 570.294C279.684 570.366 279.685 570.412 279.684 570.435C279.683 570.457 279.68 570.468 279.678 570.474C279.678 570.475 279.664 570.535 279.555 570.659C279.296 570.953 278.636 571.449 277.202 571.963L279.227 577.611C281.113 576.935 282.848 575.999 284.06 574.622C285.384 573.117 285.931 571.245 285.58 569.252L279.671 570.294ZM279.011 571.895C276.267 571.139 274.177 568.934 273.281 563.856L267.372 564.898C268.512 571.362 271.68 576.098 277.417 577.679L279.011 571.895ZM273.281 563.856C272.537 559.636 273.846 555.94 277.73 552.506C281.775 548.929 288.56 545.723 298.455 543.086L296.91 537.288C286.671 540.017 278.829 543.525 273.755 548.011C268.52 552.64 266.219 558.356 267.372 564.898L273.281 563.856Z" fill="black"/>
<path d="M479.695 519.055C483.119 518.451 485.883 524.117 487.988 536.051L492.905 558.787L493.198 558.735L515.072 545.498C513.901 525.128 514.293 514.77 516.25 514.425L518.106 513.795C519.769 513.502 521.518 514.555 523.353 516.955C522.896 534.385 523.754 549.262 525.928 561.588L527.04 567.898C528.627 576.898 532.289 585.078 538.024 592.438C537.529 595.35 536.205 596.995 534.053 597.375C529.358 598.203 524.212 589.326 518.616 570.745L515.977 555.778L515.096 555.933C501.337 563.705 494.586 568.325 494.845 569.792C498.95 593.074 498.851 605.095 494.547 605.854L493.96 605.957C491.905 606.32 490.283 604.84 489.092 601.52C488.679 590.599 487.955 582.203 486.921 576.334L481.059 580.847L479.79 581.373C477.19 580.924 475.699 579.623 475.32 577.471C474.94 575.319 478.16 571.272 484.98 565.328L484.928 565.035C481.668 548.261 478.574 534.433 475.647 523.551C475.267 521.399 476.617 519.9 479.695 519.055ZM550.378 509.013L553.943 507.779L555.41 507.52C557.367 507.175 559.734 508.018 562.513 510.05C566.818 509.291 573.88 513.593 583.701 522.957C592.694 534.484 598.061 545.187 599.803 555.068C602.183 568.567 598.879 578.43 589.89 584.654L580.982 588.192C566.309 590.779 553.803 581.637 543.466 560.765C540.98 555.252 539.255 549.757 538.289 544.279L538.03 542.811C535.115 526.279 539.231 515.013 550.378 509.013ZM551.541 523.332L548.08 522.581C545.686 526.735 545.092 532.236 546.3 539.084L546.998 543.045C550.189 561.143 558.623 573.222 572.3 579.283L576.564 579.439L582.14 578.456C587.227 577.559 590.335 573.733 591.464 566.978L591.206 560.366L590.403 555.817C587.816 541.144 579.676 529.013 565.982 519.424L559.655 518.724L559.362 518.776C557.405 519.121 554.798 520.64 551.541 523.332ZM627.939 468.859C635.862 467.462 646.559 470.922 660.029 479.239C679.119 494.835 690.406 512.514 693.89 532.274C697.358 551.937 690.094 567.087 672.099 577.724L668.094 579.035C657.724 580.864 648.277 574.763 639.751 560.733L639.457 560.785C638.19 573.616 634.67 580.541 628.898 581.559L628.018 581.714C620.388 583.059 612.618 569.602 604.71 541.342L603.21 532.831C601.611 522.623 603.471 516.294 608.788 513.843C610.353 513.567 612.039 514.833 613.845 517.642C611.699 522.055 611.091 526.903 612.022 532.185L612.255 533.506C615.446 551.603 620.459 564.588 627.294 572.461C630.707 568.934 631.54 556.784 629.794 536.011C626.879 519.479 626.644 510.997 629.089 510.566L630.505 510.014C633.733 509.445 635.908 512.339 637.029 518.698L638.995 534.994C640.909 545.853 646.277 556.556 655.096 567.105C659.009 569.844 662.677 570.912 666.101 570.309C671.677 569.325 677.032 564.801 682.166 556.734C685.613 549.973 686.535 542.044 684.931 532.946C681.378 512.794 669.265 495.867 648.592 482.163C643.338 479.256 635.76 477.466 625.857 476.791L624.192 474.21C624.342 471.057 625.591 469.273 627.939 468.859Z" fill="black"/>
<path d="M479.695 519.055L479.175 516.101L479.036 516.125L478.901 516.162L479.695 519.055ZM487.988 536.051L485.033 536.572L485.043 536.629L485.056 536.685L487.988 536.051ZM492.905 558.787L489.972 559.421L490.582 562.243L493.425 561.741L492.905 558.787ZM493.198 558.735L493.719 561.69L494.271 561.592L494.751 561.302L493.198 558.735ZM515.072 545.498L516.625 548.064L518.17 547.129L518.067 545.326L515.072 545.498ZM516.25 514.425L516.771 517.379L516.997 517.34L517.214 517.266L516.25 514.425ZM518.106 513.795L517.585 510.841L517.359 510.881L517.142 510.954L518.106 513.795ZM523.353 516.955L526.352 517.034L526.38 515.974L525.736 515.133L523.353 516.955ZM538.024 592.438L540.982 592.941L541.204 591.637L540.391 590.594L538.024 592.438ZM518.616 570.745L515.661 571.266L515.692 571.44L515.743 571.61L518.616 570.745ZM515.977 555.778L518.931 555.257L518.41 552.302L515.456 552.823L515.977 555.778ZM515.096 555.933L514.575 552.979L514.069 553.068L513.621 553.321L515.096 555.933ZM489.092 601.52L486.094 601.633L486.112 602.097L486.268 602.533L489.092 601.52ZM486.921 576.334L489.875 575.813L489.015 570.935L485.09 573.957L486.921 576.334ZM481.059 580.847L482.209 583.618L482.575 583.466L482.89 583.224L481.059 580.847ZM479.79 581.373L479.28 584.33L480.137 584.477L480.94 584.144L479.79 581.373ZM484.98 565.328L486.951 567.59L488.229 566.476L487.934 564.807L484.98 565.328ZM484.928 565.035L487.883 564.514L487.878 564.488L487.873 564.462L484.928 565.035ZM475.647 523.551L472.692 524.072L472.715 524.203L472.75 524.331L475.647 523.551ZM480.216 522.009C480.078 522.034 480.03 521.928 480.24 522.1C480.541 522.346 481.041 522.939 481.64 524.167C482.833 526.612 483.994 530.676 485.033 536.572L490.942 535.53C489.877 529.492 488.604 524.756 487.033 521.536C486.25 519.931 485.286 518.475 484.039 517.456C482.702 516.362 481.024 515.774 479.175 516.101L480.216 522.009ZM485.056 536.685L489.972 559.421L495.837 558.153L490.92 535.417L485.056 536.685ZM493.425 561.741L493.719 561.69L492.677 555.781L492.384 555.832L493.425 561.741ZM494.751 561.302L516.625 548.064L513.518 542.931L491.645 556.169L494.751 561.302ZM518.067 545.326C517.483 535.163 517.295 527.597 517.486 522.566C517.582 520.027 517.771 518.277 518.006 517.204C518.127 516.652 518.224 516.46 518.218 516.469C518.211 516.483 518.125 516.641 517.916 516.83C517.69 517.034 517.307 517.285 516.771 517.379L515.729 511.471C514.148 511.749 513.319 512.926 512.96 513.579C512.564 514.3 512.318 515.133 512.145 515.918C511.794 517.521 511.59 519.698 511.49 522.338C511.288 527.664 511.49 535.462 512.077 545.67L518.067 545.326ZM517.214 517.266L519.07 516.636L517.142 510.954L515.286 511.584L517.214 517.266ZM518.627 516.75C518.64 516.747 518.662 516.744 518.717 516.756C518.78 516.77 518.912 516.811 519.117 516.935C519.553 517.198 520.182 517.747 520.97 518.777L525.736 515.133C523.77 512.562 521.023 510.235 517.585 510.841L518.627 516.75ZM520.354 516.876C519.894 534.435 520.754 549.525 522.973 562.109L528.882 561.067C526.754 548.999 525.898 534.334 526.352 517.034L520.354 516.876ZM522.973 562.109L524.086 568.419L529.995 567.377L528.882 561.067L522.973 562.109ZM524.086 568.419C525.76 577.911 529.628 586.544 535.658 594.282L540.391 590.594C534.949 583.612 531.495 575.884 529.995 567.377L524.086 568.419ZM535.067 591.935C534.873 593.077 534.561 593.679 534.323 593.976C534.133 594.211 533.92 594.352 533.532 594.42L534.574 600.329C536.339 600.018 537.863 599.147 538.998 597.736C540.083 596.387 540.681 594.711 540.982 592.941L535.067 591.935ZM533.532 594.42C533.482 594.429 533.139 594.502 532.346 593.854C531.514 593.173 530.47 591.908 529.268 589.834C526.873 585.703 524.267 579.107 521.488 569.88L515.743 571.61C518.56 580.963 521.325 588.097 524.077 592.843C525.447 595.206 526.92 597.167 528.548 598.498C530.216 599.862 532.277 600.734 534.574 600.329L533.532 594.42ZM521.57 570.224L518.931 555.257L513.022 556.299L515.661 571.266L521.57 570.224ZM515.456 552.823L514.575 552.979L515.617 558.887L516.497 558.732L515.456 552.823ZM513.621 553.321C506.721 557.218 501.504 560.367 498.019 562.751C496.291 563.934 494.893 564.993 493.913 565.912C493.431 566.364 492.946 566.878 492.575 567.438C492.277 567.889 491.651 568.956 491.891 570.313L497.799 569.271C497.893 569.8 497.796 570.213 497.726 570.424C497.656 570.634 497.58 570.747 497.578 570.75C497.571 570.761 497.595 570.723 497.675 570.634C497.752 570.548 497.863 570.433 498.017 570.289C498.66 569.686 499.761 568.83 501.408 567.703C504.674 565.467 509.711 562.42 516.572 558.545L513.621 553.321ZM491.891 570.313C493.936 581.911 494.897 590.517 494.849 596.244C494.826 599.136 494.543 601.055 494.15 602.196C493.745 603.371 493.516 602.989 494.026 602.899L495.067 608.808C497.729 608.339 499.127 606.17 499.823 604.15C500.531 602.096 500.823 599.412 500.849 596.294C500.901 590 499.86 580.955 497.799 569.271L491.891 570.313ZM494.026 602.899L493.439 603.003L494.481 608.912L495.067 608.808L494.026 602.899ZM493.439 603.003C493.349 603.019 493.342 603.004 493.372 603.013C493.396 603.021 493.346 603.015 493.223 602.903C492.929 602.635 492.436 601.957 491.916 600.507L486.268 602.533C486.939 604.404 487.852 606.126 489.181 607.337C490.638 608.665 492.483 609.264 494.481 608.912L493.439 603.003ZM492.09 601.407C491.676 590.441 490.946 581.885 489.875 575.813L483.966 576.855C484.965 582.521 485.683 590.756 486.094 601.633L492.09 601.407ZM485.09 573.957L479.229 578.47L482.89 583.224L488.751 578.711L485.09 573.957ZM479.91 578.076L478.641 578.602L480.94 584.144L482.209 583.618L479.91 578.076ZM480.301 578.417C479.367 578.256 478.909 577.988 478.695 577.801C478.521 577.649 478.358 577.427 478.274 576.95L472.365 577.992C472.661 579.668 473.433 581.172 474.749 582.321C476.025 583.435 477.613 584.042 479.28 584.33L480.301 578.417ZM478.274 576.95C478.329 577.262 478.204 577.26 478.438 576.751C478.654 576.279 479.075 575.598 479.798 574.689C481.241 572.875 483.593 570.516 486.951 567.59L483.009 563.067C479.547 566.083 476.88 568.72 475.103 570.954C474.216 572.069 473.477 573.174 472.983 574.252C472.506 575.293 472.121 576.605 472.365 577.992L478.274 576.95ZM487.934 564.807L487.883 564.514L481.974 565.556L482.026 565.849L487.934 564.807ZM487.873 564.462C484.605 547.65 481.496 533.747 478.544 522.772L472.75 524.331C475.652 535.119 478.73 548.871 481.983 565.607L487.873 564.462ZM478.601 523.03C478.57 522.855 478.593 522.804 478.586 522.83C478.577 522.864 478.562 522.866 478.604 522.821C478.731 522.679 479.209 522.3 480.49 521.948L478.901 516.162C477.104 516.656 475.367 517.449 474.145 518.806C472.795 520.305 472.358 522.174 472.692 524.072L478.601 523.03ZM550.378 509.013L549.397 506.178L549.168 506.257L548.956 506.371L550.378 509.013ZM553.943 507.779L553.422 504.824L553.187 504.866L552.962 504.944L553.943 507.779ZM562.513 510.05L560.743 512.472L561.775 513.226L563.034 513.004L562.513 510.05ZM583.701 522.957L586.067 521.112L585.931 520.938L585.772 520.785L583.701 522.957ZM589.89 584.654L590.997 587.443L591.316 587.316L591.598 587.121L589.89 584.654ZM580.982 588.192L581.503 591.147L581.805 591.093L582.089 590.98L580.982 588.192ZM543.466 560.765L540.731 561.998L540.753 562.048L540.777 562.097L543.466 560.765ZM551.541 523.332L550.905 526.264L552.329 526.573L553.452 525.644L551.541 523.332ZM548.08 522.581L548.716 519.649L546.575 519.184L545.481 521.083L548.08 522.581ZM572.3 579.283L571.085 582.026L571.613 582.26L572.191 582.281L572.3 579.283ZM576.564 579.439L576.454 582.437L576.772 582.449L577.085 582.394L576.564 579.439ZM591.464 566.978L594.423 567.472L594.473 567.168L594.461 566.861L591.464 566.978ZM591.206 560.366L594.203 560.249L594.195 560.046L594.16 559.845L591.206 560.366ZM565.982 519.424L567.703 516.967L567.074 516.527L566.312 516.442L565.982 519.424ZM559.655 518.724L559.985 515.742L559.558 515.695L559.134 515.77L559.655 518.724ZM551.359 511.848L554.924 510.614L552.962 504.944L549.397 506.178L551.359 511.848ZM554.464 510.733L555.931 510.474L554.889 504.566L553.422 504.824L554.464 510.733ZM555.931 510.474C556.662 510.346 558.171 510.592 560.743 512.472L564.284 507.628C561.297 505.445 558.071 504.005 554.889 504.566L555.931 510.474ZM563.034 513.004C564.056 512.824 566.083 513.201 569.478 515.27C572.747 517.261 576.791 520.513 581.631 525.128L585.772 520.785C580.791 516.037 576.393 512.456 572.599 510.145C568.932 507.911 565.275 506.517 561.992 507.096L563.034 513.004ZM581.336 524.802C590.155 536.107 595.222 546.362 596.849 555.589L602.758 554.547C600.9 544.013 595.233 532.861 586.067 521.112L581.336 524.802ZM596.849 555.589C597.979 561.997 597.716 567.306 596.266 571.636C594.83 575.921 592.174 579.424 588.182 582.188L591.598 587.121C596.596 583.66 600.086 579.12 601.955 573.542C603.808 568.01 604.008 561.638 602.758 554.547L596.849 555.589ZM588.783 581.866L579.875 585.404L582.089 590.98L590.997 587.443L588.783 581.866ZM580.461 585.238C573.964 586.383 567.991 584.965 562.368 580.854C556.652 576.675 551.207 569.637 546.154 559.434L540.777 562.097C546.061 572.765 552.039 580.735 558.827 585.698C565.71 590.729 573.327 592.588 581.503 591.147L580.461 585.238ZM546.201 559.532C543.809 554.227 542.163 548.97 541.243 543.758L535.335 544.799C536.347 550.543 538.152 556.277 540.731 561.998L546.201 559.532ZM541.243 543.758L540.985 542.29L535.076 543.332L535.335 544.799L541.243 543.758ZM540.985 542.29C539.584 534.346 539.93 527.97 541.749 522.992C543.54 518.089 546.834 514.327 551.8 511.654L548.956 506.371C542.775 509.698 538.438 514.569 536.113 520.933C533.816 527.221 533.561 534.744 535.076 543.332L540.985 542.29ZM552.178 520.4L548.716 519.649L547.444 525.512L550.905 526.264L552.178 520.4ZM545.481 521.083C542.606 526.07 542.069 532.368 543.345 539.605L549.254 538.563C548.115 532.104 548.765 527.399 550.679 524.079L545.481 521.083ZM543.345 539.605L544.044 543.566L549.953 542.525L549.254 538.563L543.345 539.605ZM544.044 543.566C547.363 562.392 556.28 575.465 571.085 582.026L573.516 576.541C560.967 570.979 553.015 559.894 549.953 542.525L544.044 543.566ZM572.191 582.281L576.454 582.437L576.674 576.441L572.41 576.285L572.191 582.281ZM577.085 582.394L582.661 581.411L581.619 575.502L576.043 576.485L577.085 582.394ZM582.661 581.411C585.878 580.843 588.583 579.307 590.615 576.805C592.599 574.362 593.804 571.172 594.423 567.472L588.505 566.483C587.994 569.538 587.081 571.639 585.958 573.022C584.882 574.347 583.489 575.172 581.619 575.502L582.661 581.411ZM594.461 566.861L594.203 560.249L588.208 560.483L588.466 567.095L594.461 566.861ZM594.16 559.845L593.358 555.296L587.449 556.338L588.251 560.887L594.16 559.845ZM593.358 555.296C590.615 539.741 581.961 526.951 567.703 516.967L564.261 521.882C577.39 531.074 585.017 542.547 587.449 556.338L593.358 555.296ZM566.312 516.442L559.985 515.742L559.325 521.706L565.652 522.406L566.312 516.442ZM559.134 515.77L558.841 515.821L559.883 521.73L560.176 521.679L559.134 515.77ZM558.841 515.821C556.056 516.312 552.931 518.291 549.63 521.02L553.452 525.644C556.666 522.988 558.754 521.929 559.883 521.73L558.841 515.821ZM660.029 479.239L661.927 476.915L661.773 476.79L661.605 476.686L660.029 479.239ZM672.099 577.724L673.032 580.575L673.343 580.473L673.625 580.306L672.099 577.724ZM668.094 579.035L668.614 581.99L668.824 581.953L669.027 581.886L668.094 579.035ZM639.751 560.733L642.315 559.175L641.249 557.422L639.23 557.778L639.751 560.733ZM639.457 560.785L638.936 557.83L636.696 558.225L636.472 560.49L639.457 560.785ZM604.71 541.342L601.756 541.863L601.781 542.008L601.821 542.15L604.71 541.342ZM603.21 532.831L600.246 533.295L600.25 533.324L600.255 533.352L603.21 532.831ZM608.788 513.843L608.267 510.889L607.885 510.956L607.532 511.119L608.788 513.843ZM613.845 517.642L616.543 518.954L617.281 517.437L616.369 516.019L613.845 517.642ZM627.294 572.461L625.029 574.428L627.174 576.899L629.45 574.547L627.294 572.461ZM629.794 536.011L632.783 535.76L632.772 535.624L632.748 535.49L629.794 536.011ZM629.089 510.566L629.61 513.52L629.903 513.469L630.18 513.361L629.089 510.566ZM630.505 510.014L629.984 507.059L629.692 507.111L629.415 507.219L630.505 510.014ZM637.029 518.698L640.008 518.339L639.998 518.257L639.984 518.177L637.029 518.698ZM638.995 534.994L636.016 535.353L636.026 535.435L636.04 535.515L638.995 534.994ZM655.096 567.105L652.795 569.029L653.05 569.334L653.376 569.562L655.096 567.105ZM682.166 556.734L684.697 558.345L684.773 558.224L684.838 558.097L682.166 556.734ZM648.592 482.163L650.249 479.662L650.149 479.596L650.044 479.538L648.592 482.163ZM625.857 476.791L623.337 478.418L624.152 479.682L625.653 479.784L625.857 476.791ZM624.192 474.21L621.195 474.068L621.15 475.028L621.671 475.837L624.192 474.21ZM628.46 471.814C635.224 470.621 645.087 473.539 658.452 481.791L661.605 476.686C648.031 468.305 636.501 464.303 627.418 465.905L628.46 471.814ZM658.13 481.562C676.796 496.812 687.603 513.894 690.936 532.795L696.845 531.753C693.209 511.133 681.441 492.859 661.927 476.915L658.13 481.562ZM690.936 532.795C692.582 542.129 691.651 550.177 688.338 557.087C685.019 564.008 679.183 570.051 670.572 575.141L673.625 580.306C683.009 574.76 689.803 567.909 693.748 559.681C697.699 551.44 698.666 542.083 696.845 531.753L690.936 532.795ZM671.165 574.873L667.16 576.184L669.027 581.886L673.032 580.575L671.165 574.873ZM667.573 576.081C659.049 577.584 650.61 572.826 642.315 559.175L637.187 562.291C645.943 576.699 656.399 584.144 668.614 581.99L667.573 576.081ZM639.23 557.778L638.936 557.83L639.978 563.739L640.272 563.687L639.23 557.778ZM636.472 560.49C635.854 566.747 634.708 571.261 633.192 574.243C631.709 577.162 630.049 578.31 628.377 578.604L629.419 584.513C633.519 583.79 636.505 580.967 638.541 576.961C640.545 573.018 641.793 567.654 642.443 561.08L636.472 560.49ZM628.377 578.604L627.497 578.76L628.539 584.668L629.419 584.513L628.377 578.604ZM627.497 578.76C626.642 578.91 625.568 578.725 624.124 577.59C622.623 576.409 620.917 574.335 619.066 571.13C615.373 564.733 611.534 554.595 607.599 540.534L601.821 542.15C605.794 556.349 609.794 567.069 613.87 574.13C615.904 577.654 618.065 580.458 620.414 582.306C622.82 584.198 625.579 585.19 628.539 584.668L627.497 578.76ZM607.665 540.821L606.164 532.31L600.255 533.352L601.756 541.863L607.665 540.821ZM606.173 532.367C605.408 527.478 605.53 523.841 606.284 521.274C607.004 518.823 608.277 517.382 610.044 516.568L607.532 511.119C603.982 512.755 601.667 515.704 600.527 519.582C599.422 523.345 599.413 527.976 600.246 533.295L606.173 532.367ZM609.309 516.798C609.031 516.847 609.019 516.68 609.425 516.985C609.866 517.316 610.513 518.006 611.322 519.265L616.369 516.019C615.372 514.469 614.272 513.121 613.028 512.187C611.748 511.226 610.11 510.564 608.267 510.889L609.309 516.798ZM611.148 516.329C608.698 521.364 608.037 526.862 609.068 532.706L614.977 531.664C614.144 526.944 614.699 522.745 616.543 518.954L611.148 516.329ZM609.068 532.706L609.301 534.027L615.21 532.985L614.977 531.664L609.068 532.706ZM609.301 534.027C612.524 552.305 617.658 565.939 625.029 574.428L629.559 570.494C623.26 563.238 618.369 550.901 615.21 532.985L609.301 534.027ZM629.45 574.547C630.816 573.136 631.679 571.148 632.266 568.983C632.866 566.766 633.256 564.055 633.472 560.909C633.903 554.612 633.661 546.208 632.783 535.76L626.804 536.263C627.672 546.588 627.887 554.645 627.486 560.498C627.285 563.427 626.935 565.713 626.474 567.415C625.999 569.169 625.479 570.023 625.138 570.375L629.45 574.547ZM632.748 535.49C631.296 527.258 630.541 521.181 630.43 517.168C630.374 515.131 630.492 513.837 630.67 513.121C630.911 512.147 630.929 513.288 629.61 513.52L628.568 507.612C626.027 508.06 625.157 510.422 624.846 511.677C624.471 513.189 624.371 515.13 624.432 517.334C624.556 521.802 625.376 528.233 626.839 536.532L632.748 535.49ZM630.18 513.361L631.595 512.809L629.415 507.219L627.999 507.771L630.18 513.361ZM631.026 512.968C631.325 512.915 631.465 512.959 631.543 512.992C631.638 513.033 631.857 513.158 632.159 513.56C632.82 514.44 633.541 516.194 634.075 519.219L639.984 518.177C639.396 514.843 638.469 511.971 636.956 509.956C636.17 508.91 635.17 508.021 633.915 507.481C632.641 506.933 631.299 506.828 629.984 507.059L631.026 512.968ZM634.051 519.057L636.016 535.353L641.973 534.635L640.008 518.339L634.051 519.057ZM636.04 535.515C638.066 547.003 643.721 558.176 652.795 569.029L657.398 565.181C648.833 554.936 643.753 544.702 641.949 534.473L636.04 535.515ZM653.376 569.562C657.691 572.584 662.159 574.05 666.622 573.263L665.58 567.354C663.195 567.775 660.327 567.105 656.817 564.647L653.376 569.562ZM666.622 573.263C673.447 572.06 679.407 566.655 684.697 558.345L679.635 555.123C674.656 562.946 669.906 566.591 665.58 567.354L666.622 573.263ZM684.838 558.097C688.642 550.638 689.578 542.022 687.885 532.425L681.977 533.467C683.493 542.066 682.585 549.308 679.493 555.371L684.838 558.097ZM687.885 532.425C684.16 511.296 671.451 493.717 650.249 479.662L646.934 484.664C667.078 498.017 678.596 514.293 681.977 533.467L687.885 532.425ZM650.044 479.538C644.235 476.324 636.151 474.485 626.061 473.798L625.653 479.784C635.369 480.446 642.442 482.189 647.139 484.788L650.044 479.538ZM628.378 475.165L626.713 472.584L621.671 475.837L623.337 478.418L628.378 475.165ZM627.188 474.353C627.248 473.102 627.514 472.491 627.699 472.228C627.821 472.053 627.987 471.897 628.46 471.814L627.418 465.905C625.542 466.236 623.91 467.178 622.784 468.787C621.719 470.307 621.286 472.165 621.195 474.068L627.188 474.353Z" fill="black"/>
</g>
<defs>
<filter id="filter0_d_94_341" x="180.925" y="90.3253" width="450.29" height="426.392" filterUnits="userSpaceOnUse" color-interpolation-filters="sRGB">
<feFlood flood-opacity="0" result="BackgroundImageFix"/>
<feColorMatrix in="SourceAlpha" type="matrix" values="0 0 0 0 0 0 0 0 0 0 0 0 0 0 0 0 0 0 127 0" result="hardAlpha"/>
<feOffset dy="4"/>
<feGaussianBlur stdDeviation="2"/>
<feComposite in2="hardAlpha" operator="out"/>
<feColorMatrix type="matrix" values="0 0 0 0 0 0 0 0 0 0 0 0 0 0 0 0 0 0 0.25 0"/>
<feBlend mode="normal" in2="BackgroundImageFix" result="effect1_dropShadow_94_341"/>
<feBlend mode="normal" in="SourceGraphic" in2="effect1_dropShadow_94_341" result="shape"/>
</filter>
<clipPath id="clip0_94_341">
<rect width="789" height="788" fill="white"/>
</clipPath>
</defs>
</svg>
