<?xml version="1.0" encoding="UTF-8" standalone="no"?>
<svg width="43.900002mm" height="50.799999mm" version="1.1" xml:space="preserve" style="clip-rule:evenodd;fill-rule:evenodd;stroke-linejoin:round;stroke-miterlimit:2" id="svg26" xmlns="http://www.w3.org/2000/svg" xmlns:svg="http://www.w3.org/2000/svg"><defs id="defs26"/><g id="g2" transform="matrix(1.0196618,0,0,1.0215341,-1.7655843,-2.1222497)" style="fill:#ffffff;fill-opacity:1"><polygon points="159.319,136.825 161.938,135.321 161.938,132.309 161.938,66.116 161.938,63.104 159.308,61.6 101.841,28.504 99.234,27.006 96.629,28.504 39.347,61.6 36.911,63.104 36.911,66.116 36.911,132.309 36.911,135.321 39.346,136.825 96.715,169.921 99.273,171.419 101.853,169.921 " id="polygon71814" style="fill:#ffffff;fill-opacity:1" transform="matrix(1.3014377,0,0,1.3014377,-46.302323,-33.065072)"/></g><path id="path27" style="fill:#f2f2f2;fill-rule:nonzero;stroke-width:3.5475" d="M 84.267578 22.746094 C 69.997233 22.332429 57.055344 26.674628 45.396484 35.769531 C 33.118587 45.330044 25.654527 57.674997 22.933594 72.673828 C 22.724292 73.929643 22.5169 75.186907 22.375 76.513672 C 22.169245 77.698538 22.098295 78.95317 22.027344 80.208984 C 21.541336 87.254319 22.167697 93.951716 23.980469 100.36914 C 26.073494 107.83308 29.700075 114.94979 34.865234 121.58008 C 40.094249 128.2068 46.024339 133.43699 52.792969 137.27539 C 58.582489 140.55329 64.928954 142.78679 71.835938 144.03906 C 71.953004 144.06036 72.102798 144.08643 72.269531 144.11133 C 75.228146 144.60798 78.101965 142.85538 79.013672 139.99609 C 79.843787 137.39223 80.840127 134.87606 81.982422 132.45312 C 82.642257 131.07315 82.596896 129.46241 81.855469 128.125 C 81.117588 126.78759 79.776143 125.89453 78.257812 125.7207 C 78.257812 125.6959 78.257406 125.69531 78.253906 125.69531 L 77.90625 125.69531 C 75.114368 125.34411 72.465393 124.71743 69.882812 123.95117 C 62.000267 121.43954 55.302555 116.69604 49.931641 109.78906 C 44.489775 102.88208 41.558273 95.278669 41.072266 87.044922 C 40.862964 84.394939 41.001954 81.674695 41.349609 78.882812 L 41.349609 78.535156 C 42.814727 67.161872 48.118136 57.885179 57.185547 50.839844 C 66.327454 43.652609 76.650472 40.792695 88.162109 42.257812 C 99.6702 43.65198 108.95144 48.955389 116.13867 58.09375 C 123.32236 67.23211 126.18127 77.560269 124.78711 89.068359 L 124.78711 89.074219 C 124.57071 90.670593 125.14219 92.271727 126.31641 93.375 C 127.49063 94.474725 129.12644 94.938775 130.70508 94.623047 C 134.02553 93.95257 137.4226 93.56521 140.90625 93.4375 C 142.58067 93.38783 143.96787 92.110685 144.15234 90.443359 C 144.15634 90.443359 144.15625 90.444906 144.15625 90.441406 C 146.17787 73.697159 141.59925 59.631051 131.20508 46.306641 C 120.8109 32.982231 107.2055 25.304322 90.464844 23.214844 C 88.371819 22.961641 86.306199 22.805189 84.267578 22.746094 z M 4.0195312 79.318359 C 2.6665524 79.469886 1.3270096 79.67161 0 79.912109 L 0 99.652344 C 1.7913138 99.1796 3.6158916 98.834789 5.4765625 98.621094 C 10.6027 98.088968 14.412547 93.636062 14.146484 88.492188 C 14.362882 88.438978 14.362923 88.394132 14.359375 88.351562 C 14.231665 85.765435 13.058547 83.341472 11.107422 81.638672 C 9.1562972 79.935872 6.5985638 79.098415 4.0195312 79.318359 z M 142.7168 100.92383 C 137.54271 100.99882 132.54767 101.73221 127.78516 103.0918 C 120.32121 105.18482 113.20486 108.81299 106.57812 113.97461 C 99.951395 119.13622 94.789567 125.06695 90.951172 131.83203 C 90.390666 132.82179 89.861166 133.82988 89.357422 134.85156 C 87.576577 138.39906 87.375045 142.5331 88.804688 146.24023 C 90.237878 149.94383 93.163597 152.86919 96.867188 154.29883 C 96.892017 154.29183 96.910351 154.29964 96.931641 154.30664 C 98.276143 154.82812 99.780618 154.7527 101.06836 154.10352 C 102.35965 153.45433 103.31414 152.29102 103.69727 150.90039 C 103.89238 150.2583 104.08028 149.624 104.27539 148.99609 C 106.71607 141.11355 111.46216 134.41585 118.36914 129.04492 C 125.27612 123.67047 132.87854 120.67184 141.17969 120.11133 C 143.83321 119.90203 146.55123 120.04493 149.41406 120.39258 L 149.62305 120.39258 C 155.65453 121.1698 161.07847 123.06099 165.92188 125.99805 L 165.92188 104.83789 C 162.59689 103.62687 159.1201 102.68868 155.48047 102.04492 C 154.2282 101.83562 152.97225 101.62663 151.71289 101.48828 C 150.46062 101.27897 149.20503 101.13931 147.94922 101.06836 C 146.187 100.94597 144.44149 100.89883 142.7168 100.92383 z M 56.037109 147.84766 C 55.335148 147.88535 54.642456 148.07011 54.003906 148.39648 C 52.723259 149.05277 51.778738 150.21645 51.40625 151.60352 C 51.22178 152.2527 51.038504 152.89785 50.839844 153.5293 C 49.052785 159.13784 46.111658 164.10056 42.089844 168.46289 L 58.900391 178.17969 C 60.819224 175.78738 62.58929 173.31558 64.091797 170.69141 C 64.670039 169.67327 65.218034 168.63759 65.732422 167.58398 C 67.509719 164.03649 67.70005 159.90743 66.259766 156.21094 C 64.823028 152.51444 61.885231 149.60136 58.181641 148.18945 C 58.160361 148.18945 58.140787 148.18298 58.123047 148.17578 C 57.450796 147.91859 56.739071 147.80996 56.037109 147.84766 z M 81.638672 158.32422 C 79.105563 158.36545 76.812916 160.00779 76.005859 162.49414 C 75.182839 165.03415 74.214601 167.4973 73.111328 169.88477 C 72.447946 171.28957 72.492948 172.92718 73.234375 174.29297 C 73.972255 175.65876 75.31976 176.59184 76.859375 176.80469 C 76.855875 176.82949 76.859375 176.83008 76.859375 176.83008 L 77.140625 176.83008 C 79.92896 177.18128 82.579529 177.73896 85.162109 178.57617 C 89.190828 179.85985 92.904161 181.7334 96.294922 184.17383 L 113.85742 174.04102 C 110.28476 170.59757 106.46877 167.62302 102.32422 165.25 C 96.531156 161.96856 90.114013 159.67083 83.207031 158.48242 C 83.07932 158.46112 82.918845 158.4366 82.734375 158.4082 C 82.366322 158.34657 82.000545 158.31833 81.638672 158.32422 z "/><path id="path28" style="fill:#f2f2f2;fill-rule:nonzero;stroke-width:3.5475" d="M 82.792969 64.822266 C 78.695654 64.869498 74.935313 66.24492 71.591797 68.908203 C 67.405751 72.118687 64.965797 76.373868 64.337891 81.673828 C 63.709983 86.835436 65.033019 91.51122 68.314453 95.697266 C 71.592341 99.88331 75.777208 102.32523 81.009766 102.95312 C 86.242322 103.58102 90.915518 102.25446 95.101562 98.976562 C 99.216658 95.698677 101.66115 91.511855 102.28906 86.279297 C 102.91697 81.046739 101.6607 76.304549 98.382812 72.189453 C 95.101379 68.003406 90.916152 65.629859 85.683594 65.001953 C 84.703154 64.870917 83.738503 64.811366 82.792969 64.822266 z M 10.525391 121.28516 C 6.7101144 121.34845 3.218651 122.56005 0 124.88672 L 0 140.00195 L 0 144.00781 L 3.2324219 146.00586 L 21.345703 156.47461 C 21.846294 156.14591 22.340805 155.79566 22.828125 155.41406 C 27.014172 152.13619 29.454125 147.94871 30.082031 142.78711 C 30.709939 137.4836 29.388218 132.7401 26.177734 128.625 C 22.899848 124.43895 18.642714 122.06736 13.410156 121.43945 C 12.429717 121.32172 11.467339 121.26953 10.525391 121.28516 z M 143.9043 142.98828 C 139.80595 143.07357 136.04859 144.44805 132.70508 147.11133 C 128.51903 150.3218 126.07908 154.50573 125.45117 159.73828 C 125.14344 162.30272 125.31106 164.74738 125.94141 167.06836 L 157.92383 148.61523 C 154.90763 145.51794 151.23097 143.66708 146.79492 143.13477 C 145.81382 143.01703 144.85007 142.9686 143.9043 142.98828 z "/><g id="g24" transform="matrix(0.57348488,0,0,0.57348488,3.1079919,119.83628)"><g id="g13"><path d="m 81.941,54.041 c -0.3,0 -0.554,-0.105 -0.764,-0.314 -0.21,-0.21 -0.314,-0.465 -0.314,-0.764 V 31.764 c 0,-0.299 0.104,-0.554 0.314,-0.763 0.21,-0.21 0.464,-0.315 0.764,-0.315 h 3.682 c 0.3,0 0.554,0.105 0.764,0.315 0.21,0.209 0.314,0.464 0.314,0.763 v 1.842 c 0.779,-0.958 1.774,-1.759 2.987,-2.403 1.213,-0.644 2.717,-0.966 4.514,-0.966 1.826,0 3.413,0.412 4.76,1.235 1.348,0.824 2.388,1.984 3.122,3.481 0.733,1.497 1.1,3.294 1.1,5.39 v 12.62 c 0,0.299 -0.105,0.554 -0.314,0.764 -0.21,0.209 -0.464,0.314 -0.764,0.314 h -3.952 c -0.299,0 -0.554,-0.105 -0.764,-0.314 -0.209,-0.21 -0.314,-0.465 -0.314,-0.764 V 40.612 c 0,-1.737 -0.427,-3.099 -1.28,-4.087 -0.853,-0.988 -2.088,-1.482 -3.705,-1.482 -1.557,0 -2.8,0.494 -3.728,1.482 -0.928,0.988 -1.392,2.35 -1.392,4.087 v 12.351 c 0,0.299 -0.105,0.554 -0.315,0.764 -0.209,0.209 -0.464,0.314 -0.763,0.314 z" style="fill:#231f20;fill-rule:nonzero" id="path9"/><path d="m 110.011,54.041 c -0.3,0 -0.554,-0.105 -0.764,-0.314 -0.209,-0.21 -0.314,-0.465 -0.314,-0.764 V 23.231 c 0,-0.299 0.105,-0.554 0.314,-0.764 0.21,-0.209 0.464,-0.314 0.764,-0.314 h 3.728 c 0.299,0 0.554,0.105 0.763,0.314 0.21,0.21 0.315,0.465 0.315,0.764 v 29.732 c 0,0.299 -0.105,0.554 -0.315,0.764 -0.209,0.209 -0.464,0.314 -0.763,0.314 z" style="fill:#231f20;fill-rule:nonzero" id="path10"/><path d="m 121.868,54.041 c -0.3,0 -0.554,-0.105 -0.764,-0.314 -0.209,-0.21 -0.314,-0.465 -0.314,-0.764 V 31.764 c 0,-0.299 0.105,-0.554 0.314,-0.763 0.21,-0.21 0.464,-0.315 0.764,-0.315 h 3.683 c 0.299,0 0.554,0.105 0.763,0.315 0.21,0.209 0.314,0.464 0.314,0.763 v 1.842 c 0.779,-0.958 1.775,-1.759 2.987,-2.403 1.213,-0.644 2.717,-0.966 4.514,-0.966 1.826,0 3.413,0.412 4.761,1.235 1.347,0.824 2.387,1.984 3.121,3.481 0.734,1.497 1.1,3.294 1.1,5.39 v 12.62 c 0,0.299 -0.104,0.554 -0.314,0.764 -0.21,0.209 -0.464,0.314 -0.764,0.314 h -3.952 c -0.299,0 -0.554,-0.105 -0.763,-0.314 -0.21,-0.21 -0.315,-0.465 -0.315,-0.764 V 40.612 c 0,-1.737 -0.426,-3.099 -1.28,-4.087 -0.853,-0.988 -2.088,-1.482 -3.705,-1.482 -1.557,0 -2.8,0.494 -3.728,1.482 -0.928,0.988 -1.392,2.35 -1.392,4.087 v 12.351 c 0,0.299 -0.105,0.554 -0.314,0.764 -0.21,0.209 -0.465,0.314 -0.764,0.314 z" style="fill:#74aa00;fill-rule:nonzero" id="path11"/><path d="m 158.876,54.49 c -3.324,0 -5.959,-0.958 -7.905,-2.874 -1.946,-1.917 -2.994,-4.641 -3.144,-8.174 -0.03,-0.3 -0.045,-0.682 -0.045,-1.146 0,-0.464 0.015,-0.831 0.045,-1.1 0.12,-2.276 0.636,-4.229 1.55,-5.861 0.913,-1.632 2.178,-2.89 3.795,-3.773 1.617,-0.883 3.518,-1.325 5.704,-1.325 2.425,0 4.461,0.502 6.108,1.505 1.647,1.003 2.889,2.395 3.727,4.177 0.839,1.781 1.258,3.84 1.258,6.175 v 0.943 c 0,0.3 -0.105,0.554 -0.314,0.764 -0.21,0.209 -0.479,0.314 -0.809,0.314 h -14.911 v 0.36 c 0.03,1.047 0.232,2.013 0.607,2.896 0.374,0.884 0.928,1.595 1.661,2.134 0.734,0.539 1.61,0.808 2.628,0.808 0.838,0 1.542,-0.127 2.111,-0.382 0.569,-0.254 1.033,-0.546 1.392,-0.875 0.359,-0.33 0.614,-0.599 0.763,-0.809 0.27,-0.359 0.487,-0.576 0.652,-0.651 0.164,-0.075 0.411,-0.112 0.741,-0.112 h 3.862 c 0.3,0 0.547,0.09 0.741,0.269 0.195,0.18 0.277,0.404 0.247,0.674 -0.03,0.479 -0.277,1.063 -0.741,1.751 -0.464,0.689 -1.13,1.363 -1.998,2.021 -0.869,0.659 -1.954,1.206 -3.257,1.64 -1.302,0.434 -2.792,0.651 -4.468,0.651 z m -4.941,-14.147 h 9.926 v -0.135 c 0,-1.168 -0.195,-2.193 -0.584,-3.077 -0.389,-0.883 -0.958,-1.572 -1.707,-2.066 -0.748,-0.494 -1.646,-0.741 -2.694,-0.741 -1.048,0 -1.947,0.247 -2.695,0.741 -0.749,0.494 -1.31,1.183 -1.684,2.066 -0.375,0.884 -0.562,1.909 -0.562,3.077 z" style="fill:#74aa00;fill-rule:nonzero" id="path12"/><path d="m 185.284,54.041 c -1.796,0 -3.308,-0.314 -4.536,-0.943 -1.228,-0.629 -2.141,-1.565 -2.74,-2.807 -0.598,-1.243 -0.898,-2.792 -0.898,-4.649 V 35.447 h -3.548 c -0.299,0 -0.554,-0.105 -0.763,-0.314 -0.21,-0.21 -0.315,-0.479 -0.315,-0.809 v -2.56 c 0,-0.299 0.105,-0.554 0.315,-0.763 0.209,-0.21 0.464,-0.315 0.763,-0.315 h 3.548 v -7.455 c 0,-0.299 0.097,-0.554 0.292,-0.764 0.195,-0.209 0.457,-0.314 0.786,-0.314 h 3.638 c 0.299,0 0.554,0.105 0.763,0.314 0.21,0.21 0.315,0.465 0.315,0.764 v 7.455 h 5.614 c 0.299,0 0.554,0.105 0.763,0.315 0.21,0.209 0.315,0.464 0.315,0.763 v 2.56 c 0,0.33 -0.105,0.599 -0.315,0.809 -0.209,0.209 -0.464,0.314 -0.763,0.314 h -5.614 v 9.746 c 0,1.228 0.217,2.186 0.651,2.875 0.434,0.688 1.19,1.033 2.268,1.033 h 3.099 c 0.3,0 0.554,0.104 0.764,0.314 0.209,0.21 0.314,0.464 0.314,0.763 v 2.785 c 0,0.299 -0.105,0.554 -0.314,0.764 -0.21,0.209 -0.464,0.314 -0.764,0.314 z" style="fill:#74aa00;fill-rule:nonzero" id="path13"/></g><g id="g23"><path d="m 85.894,60.568 c 0.072,0 0.135,0.026 0.187,0.078 0.052,0.053 0.079,0.115 0.079,0.187 v 1.042 c 0,0.073 -0.027,0.135 -0.079,0.187 -0.052,0.053 -0.115,0.079 -0.187,0.079 h -2.94 v 1.347 h 2.744 c 0.072,0 0.134,0.026 0.186,0.079 0.053,0.052 0.079,0.115 0.079,0.187 v 1.042 c 0,0.072 -0.026,0.134 -0.079,0.187 -0.052,0.052 -0.114,0.079 -0.186,0.079 h -2.744 v 2.124 c 0,0.072 -0.026,0.134 -0.079,0.187 -0.052,0.052 -0.114,0.078 -0.187,0.078 H 81.4 c -0.072,0 -0.134,-0.026 -0.187,-0.078 -0.052,-0.053 -0.078,-0.115 -0.078,-0.187 v -6.353 c 0,-0.072 0.026,-0.134 0.078,-0.187 0.053,-0.052 0.115,-0.078 0.187,-0.078 z" style="fill:#231f20;fill-rule:nonzero" id="path14"/><path d="m 95.108,60.469 c 0.623,0 1.161,0.118 1.613,0.354 0.452,0.236 0.802,0.556 1.047,0.959 0.246,0.403 0.382,0.854 0.408,1.352 0.014,0.184 0.02,0.479 0.02,0.885 0,0.4 -0.006,0.689 -0.02,0.866 -0.026,0.498 -0.162,0.949 -0.408,1.352 -0.245,0.403 -0.595,0.723 -1.047,0.959 -0.452,0.236 -0.99,0.354 -1.613,0.354 -0.622,0 -1.16,-0.118 -1.612,-0.354 -0.453,-0.236 -0.802,-0.556 -1.048,-0.959 -0.246,-0.403 -0.382,-0.854 -0.408,-1.352 -0.013,-0.354 -0.019,-0.643 -0.019,-0.866 0,-0.223 0.006,-0.518 0.019,-0.885 0.026,-0.498 0.162,-0.949 0.408,-1.352 0.246,-0.403 0.595,-0.723 1.048,-0.959 0.452,-0.236 0.99,-0.354 1.612,-0.354 z m 1.249,2.714 c -0.033,-0.347 -0.152,-0.624 -0.359,-0.831 -0.206,-0.206 -0.503,-0.309 -0.89,-0.309 -0.386,0 -0.683,0.103 -0.89,0.309 -0.206,0.207 -0.326,0.484 -0.359,0.831 C 93.84,63.4 93.83,63.672 93.83,64 c 0,0.321 0.01,0.599 0.029,0.835 0.033,0.348 0.153,0.625 0.359,0.831 0.207,0.207 0.504,0.31 0.89,0.31 0.387,0 0.684,-0.103 0.89,-0.31 0.207,-0.206 0.326,-0.483 0.359,-0.831 0.02,-0.236 0.03,-0.514 0.03,-0.835 0,-0.328 -0.01,-0.6 -0.03,-0.817 z" style="fill:#231f20;fill-rule:nonzero" id="path15"/><path d="m 110.036,60.568 c 0.072,0 0.134,0.026 0.187,0.078 0.052,0.053 0.078,0.115 0.078,0.187 v 3.924 c 0,0.59 -0.124,1.095 -0.373,1.514 -0.249,0.42 -0.599,0.738 -1.048,0.954 -0.449,0.216 -0.971,0.325 -1.568,0.325 -0.603,0 -1.129,-0.109 -1.578,-0.325 -0.449,-0.216 -0.797,-0.534 -1.043,-0.954 -0.246,-0.419 -0.369,-0.924 -0.369,-1.514 v -3.924 c 0,-0.072 0.027,-0.134 0.079,-0.187 0.053,-0.052 0.115,-0.078 0.187,-0.078 h 1.288 c 0.072,0 0.135,0.026 0.187,0.078 0.053,0.053 0.079,0.115 0.079,0.187 v 3.884 c 0,0.4 0.1,0.71 0.3,0.93 0.2,0.219 0.49,0.329 0.87,0.329 0.38,0 0.67,-0.11 0.87,-0.329 0.2,-0.22 0.3,-0.53 0.3,-0.93 v -3.884 c 0,-0.072 0.026,-0.134 0.079,-0.187 0.052,-0.052 0.115,-0.078 0.187,-0.078 z" style="fill:#231f20;fill-rule:nonzero" id="path16"/><path d="m 121.148,67.451 c -0.098,0 -0.184,-0.024 -0.256,-0.074 -0.072,-0.049 -0.121,-0.1 -0.147,-0.152 l -2.252,-3.363 v 3.324 c 0,0.072 -0.026,0.134 -0.079,0.187 -0.052,0.052 -0.115,0.078 -0.187,0.078 h -1.288 c -0.072,0 -0.134,-0.026 -0.187,-0.078 -0.052,-0.053 -0.078,-0.115 -0.078,-0.187 v -6.353 c 0,-0.072 0.026,-0.134 0.078,-0.187 0.053,-0.052 0.115,-0.078 0.187,-0.078 h 1.023 c 0.098,0 0.183,0.024 0.255,0.073 0.073,0.05 0.122,0.1 0.148,0.153 l 2.252,3.363 v -3.324 c 0,-0.072 0.026,-0.134 0.079,-0.187 0.052,-0.052 0.114,-0.078 0.186,-0.078 h 1.289 c 0.072,0 0.134,0.026 0.186,0.078 0.053,0.053 0.079,0.115 0.079,0.187 v 6.353 c 0,0.072 -0.026,0.134 -0.079,0.187 -0.052,0.052 -0.114,0.078 -0.186,0.078 z" style="fill:#231f20;fill-rule:nonzero" id="path17"/><path d="m 134.679,63.311 c 0.013,0.367 0.02,0.603 0.02,0.708 0,0.105 -0.007,0.335 -0.02,0.689 -0.02,0.537 -0.159,1.012 -0.418,1.425 -0.259,0.413 -0.614,0.736 -1.067,0.969 -0.452,0.233 -0.977,0.349 -1.573,0.349 h -2.655 c -0.072,0 -0.135,-0.026 -0.187,-0.078 -0.053,-0.053 -0.079,-0.115 -0.079,-0.187 v -6.353 c 0,-0.072 0.026,-0.134 0.079,-0.187 0.052,-0.052 0.115,-0.078 0.187,-0.078 h 2.606 c 0.596,0 1.126,0.116 1.588,0.349 0.462,0.232 0.826,0.557 1.091,0.973 0.266,0.417 0.408,0.89 0.428,1.421 z m -4.16,-1.17 v 3.737 h 1.053 c 0.826,0 1.255,-0.377 1.288,-1.131 0.013,-0.38 0.02,-0.629 0.02,-0.747 0,-0.132 -0.007,-0.374 -0.02,-0.728 -0.02,-0.374 -0.143,-0.656 -0.369,-0.846 -0.226,-0.19 -0.549,-0.285 -0.969,-0.285 z" style="fill:#231f20;fill-rule:nonzero" id="path18"/><path d="m 146.411,67.087 c 0.026,0.066 0.039,0.115 0.039,0.148 0,0.059 -0.021,0.11 -0.064,0.152 -0.043,0.043 -0.093,0.064 -0.152,0.064 h -1.239 c -0.112,0 -0.199,-0.024 -0.261,-0.074 -0.062,-0.049 -0.103,-0.106 -0.123,-0.172 l -0.275,-0.816 h -2.616 l -0.275,0.816 c -0.02,0.066 -0.061,0.123 -0.123,0.172 -0.063,0.05 -0.149,0.074 -0.261,0.074 h -1.239 c -0.059,0 -0.11,-0.021 -0.152,-0.064 -0.043,-0.042 -0.064,-0.093 -0.064,-0.152 0,-0.033 0.013,-0.082 0.039,-0.148 l 2.144,-6.195 c 0.033,-0.092 0.085,-0.169 0.157,-0.231 0.072,-0.062 0.167,-0.093 0.285,-0.093 h 1.593 c 0.118,0 0.213,0.031 0.286,0.093 0.072,0.062 0.124,0.139 0.157,0.231 z m -2.587,-2.222 -0.796,-2.36 -0.797,2.36 z" style="fill:#231f20;fill-rule:nonzero" id="path19"/><path d="m 157.365,60.568 c 0.072,0 0.135,0.026 0.187,0.078 0.053,0.053 0.079,0.115 0.079,0.187 v 1.042 c 0,0.073 -0.026,0.135 -0.079,0.187 -0.052,0.053 -0.115,0.079 -0.187,0.079 h -1.73 v 5.045 c 0,0.072 -0.027,0.134 -0.079,0.187 -0.052,0.052 -0.115,0.078 -0.187,0.078 h -1.288 c -0.072,0 -0.134,-0.026 -0.187,-0.078 -0.052,-0.053 -0.079,-0.115 -0.079,-0.187 v -5.045 h -1.73 c -0.072,0 -0.135,-0.026 -0.187,-0.079 -0.053,-0.052 -0.079,-0.114 -0.079,-0.187 v -1.042 c 0,-0.072 0.026,-0.134 0.079,-0.187 0.052,-0.052 0.115,-0.078 0.187,-0.078 z" style="fill:#231f20;fill-rule:nonzero" id="path20"/><path d="m 163.846,67.451 c -0.072,0 -0.135,-0.026 -0.187,-0.078 -0.053,-0.053 -0.079,-0.115 -0.079,-0.187 v -6.353 c 0,-0.072 0.026,-0.134 0.079,-0.187 0.052,-0.052 0.115,-0.078 0.187,-0.078 h 1.288 c 0.072,0 0.134,0.026 0.187,0.078 0.052,0.053 0.078,0.115 0.078,0.187 v 6.353 c 0,0.072 -0.026,0.134 -0.078,0.187 -0.053,0.052 -0.115,0.078 -0.187,0.078 z" style="fill:#231f20;fill-rule:nonzero" id="path21"/><path d="m 174.682,60.469 c 0.623,0 1.161,0.118 1.613,0.354 0.453,0.236 0.802,0.556 1.047,0.959 0.246,0.403 0.382,0.854 0.409,1.352 0.013,0.184 0.019,0.479 0.019,0.885 0,0.4 -0.006,0.689 -0.019,0.866 -0.027,0.498 -0.163,0.949 -0.409,1.352 -0.245,0.403 -0.594,0.723 -1.047,0.959 -0.452,0.236 -0.99,0.354 -1.613,0.354 -0.622,0 -1.16,-0.118 -1.612,-0.354 -0.453,-0.236 -0.802,-0.556 -1.048,-0.959 -0.245,-0.403 -0.381,-0.854 -0.408,-1.352 -0.013,-0.354 -0.019,-0.643 -0.019,-0.866 0,-0.223 0.006,-0.518 0.019,-0.885 0.027,-0.498 0.163,-0.949 0.408,-1.352 0.246,-0.403 0.595,-0.723 1.048,-0.959 0.452,-0.236 0.99,-0.354 1.612,-0.354 z m 1.249,2.714 c -0.032,-0.347 -0.152,-0.624 -0.359,-0.831 -0.206,-0.206 -0.503,-0.309 -0.89,-0.309 -0.386,0 -0.683,0.103 -0.889,0.309 -0.207,0.207 -0.327,0.484 -0.359,0.831 -0.02,0.217 -0.03,0.489 -0.03,0.817 0,0.321 0.01,0.599 0.03,0.835 0.032,0.348 0.152,0.625 0.359,0.831 0.206,0.207 0.503,0.31 0.889,0.31 0.387,0 0.684,-0.103 0.89,-0.31 0.207,-0.206 0.327,-0.483 0.359,-0.831 0.02,-0.236 0.03,-0.514 0.03,-0.835 0,-0.328 -0.01,-0.6 -0.03,-0.817 z" style="fill:#231f20;fill-rule:nonzero" id="path22"/><path d="m 188.44,67.451 c -0.099,0 -0.184,-0.024 -0.256,-0.074 -0.072,-0.049 -0.121,-0.1 -0.147,-0.152 l -2.252,-3.363 v 3.324 c 0,0.072 -0.027,0.134 -0.079,0.187 -0.052,0.052 -0.115,0.078 -0.187,0.078 h -1.288 c -0.072,0 -0.134,-0.026 -0.187,-0.078 -0.052,-0.053 -0.079,-0.115 -0.079,-0.187 v -6.353 c 0,-0.072 0.027,-0.134 0.079,-0.187 0.053,-0.052 0.115,-0.078 0.187,-0.078 h 1.023 c 0.098,0 0.183,0.024 0.255,0.073 0.072,0.05 0.122,0.1 0.148,0.153 l 2.252,3.363 v -3.324 c 0,-0.072 0.026,-0.134 0.078,-0.187 0.053,-0.052 0.115,-0.078 0.187,-0.078 h 1.288 c 0.073,0 0.135,0.026 0.187,0.078 0.053,0.053 0.079,0.115 0.079,0.187 v 6.353 c 0,0.072 -0.026,0.134 -0.079,0.187 -0.052,0.052 -0.114,0.078 -0.187,0.078 z" style="fill:#231f20;fill-rule:nonzero" id="path23"/></g></g><g id="g9" transform="matrix(1.4730559,0,0,1.4730559,29.845618,17.040946)"><g id="g4"><path d="M 58.033,26.126 C 57.68,26.067 57.326,26.008 56.971,25.969 56.618,25.91 56.264,25.871 55.91,25.851 c -1.987,-0.138 -3.894,0.059 -5.684,0.57 -2.104,0.59 -4.11,1.613 -5.978,3.068 -1.868,1.455 -3.323,3.127 -4.405,5.034 -0.158,0.279 -0.307,0.563 -0.449,0.851 -0.502,1 -0.559,2.165 -0.156,3.21 0.404,1.044 1.229,1.869 2.273,2.272 0.007,-0.002 0.012,0 0.018,0.002 0.379,0.147 0.803,0.126 1.166,-0.057 0.364,-0.183 0.633,-0.511 0.741,-0.903 0.055,-0.181 0.108,-0.36 0.163,-0.537 0.688,-2.222 2.026,-4.11 3.973,-5.624 1.947,-1.515 4.09,-2.36 6.43,-2.518 0.748,-0.059 1.514,-0.019 2.321,0.079 h 0.059 c 3.205,0.413 5.82,1.908 7.826,4.484 2.006,2.576 2.812,5.467 2.419,8.712 -0.393,3.244 -1.887,5.879 -4.464,7.905 -1.785,1.39 -3.72,2.204 -5.807,2.442 -1.44,0.146 -2.511,1.397 -2.435,2.842 -0.06,0.015 -0.059,0.028 -0.059,0.041 0.037,0.73 0.369,1.414 0.921,1.894 0.552,0.48 1.275,0.714 2.004,0.649 3.139,-0.36 6.03,-1.558 8.68,-3.621 3.756,-2.93 5.919,-6.764 6.509,-11.464 0.571,-4.74 -0.609,-8.968 -3.54,-12.724 -2.694,-3.48 -6.174,-5.584 -10.403,-6.332 z" style="fill:#74aa00;fill-rule:nonzero" id="path1"/><path d="m 53.925,23.7 c 0.472,-0.014 0.863,-0.374 0.915,-0.844 10e-4,0 10e-4,0 10e-4,-0.001 C 55.411,18.135 54.12,14.17 51.19,10.414 48.26,6.658 44.425,4.494 39.706,3.905 34.986,3.334 30.758,4.514 27.002,7.444 c -3.461,2.695 -5.565,6.175 -6.332,10.403 -0.059,0.354 -0.118,0.708 -0.158,1.082 -0.058,0.334 -0.078,0.688 -0.098,1.042 -0.137,1.986 0.04,3.874 0.551,5.683 0.59,2.104 1.612,4.11 3.068,5.979 1.474,1.868 3.146,3.342 5.054,4.424 1.632,0.924 3.421,1.554 5.368,1.907 0.033,0.006 0.075,0.013 0.122,0.02 0.834,0.14 1.644,-0.354 1.901,-1.16 0.234,-0.734 0.515,-1.443 0.837,-2.126 0.186,-0.389 0.173,-0.843 -0.036,-1.22 -0.208,-0.377 -0.586,-0.629 -1.014,-0.678 0,-0.007 0,-0.007 -10e-4,-0.007 h -0.098 c -0.787,-0.099 -1.534,-0.276 -2.262,-0.492 -2.222,-0.708 -4.11,-2.045 -5.624,-3.992 -1.534,-1.947 -2.36,-4.09 -2.497,-6.411 -0.059,-0.747 -0.02,-1.514 0.078,-2.301 v -0.098 c 0.413,-3.206 1.908,-5.821 4.464,-7.807 2.577,-2.026 5.487,-2.832 8.732,-2.419 3.244,0.393 5.86,1.888 7.886,4.464 2.025,2.576 2.831,5.487 2.438,8.731 0,0.001 0,0.001 0,0.002 -0.061,0.45 0.1,0.901 0.431,1.212 0.331,0.31 0.792,0.441 1.237,0.352 0.936,-0.189 1.894,-0.298 2.876,-0.334 z" style="fill:#74aa00;fill-rule:nonzero" id="path2"/><path d="m 9.972,27.601 c 1.768,-1.387 3.696,-2.201 5.777,-2.44 1.445,-0.15 2.519,-1.405 2.444,-2.855 0.061,-0.015 0.061,-0.028 0.06,-0.04 -0.036,-0.729 -0.367,-1.412 -0.917,-1.892 -0.55,-0.48 -1.271,-0.716 -1.998,-0.654 -3.143,0.352 -6.037,1.554 -8.689,3.633 -3.757,2.93 -5.939,6.745 -6.51,11.465 -0.57,4.72 0.61,8.968 3.54,12.724 2.694,3.461 6.175,5.565 10.403,6.332 0.334,0.059 0.688,0.118 1.062,0.157 0.354,0.039 0.708,0.079 1.062,0.118 1.986,0.118 3.874,-0.079 5.683,-0.57 2.104,-0.59 4.11,-1.613 5.978,-3.068 1.868,-1.475 3.324,-3.146 4.405,-5.034 0.163,-0.287 0.317,-0.579 0.462,-0.876 0.501,-1 0.555,-2.164 0.149,-3.206 -0.405,-1.042 -1.233,-1.863 -2.277,-2.261 -0.006,0 -0.012,-0.002 -0.017,-0.004 -0.379,-0.145 -0.801,-0.122 -1.161,0.062 -0.361,0.185 -0.627,0.513 -0.732,0.904 -0.052,0.183 -0.104,0.365 -0.16,0.543 -0.708,2.222 -2.046,4.091 -3.992,5.624 -1.947,1.514 -4.09,2.36 -6.411,2.517 -0.767,0.04 -1.534,0.02 -2.321,-0.078 -0.019,0 -0.059,0 -0.078,-0.02 C 12.529,48.269 9.913,46.774 7.927,44.218 5.901,41.642 5.095,38.732 5.488,35.507 5.901,32.262 7.396,29.627 9.972,27.601 Z" style="fill:#74aa00;fill-rule:nonzero" id="path3"/><path d="m 18.59,56.281 c -0.618,0.032 -1.119,0.51 -1.181,1.125 -0.003,0 -0.003,10e-4 -0.003,10e-4 -0.027,5.012 0.589,8.423 3.519,12.179 2.93,3.756 6.745,5.919 11.485,6.509 4.7,0.571 8.947,-0.609 12.703,-3.54 3.462,-2.713 5.566,-6.174 6.333,-10.402 0.059,-0.354 0.118,-0.708 0.157,-1.082 0.039,-0.354 0.079,-0.708 0.098,-1.042 0.138,-1.986 -0.059,-3.894 -0.55,-5.683 -0.59,-2.104 -1.613,-4.11 -3.068,-5.978 -1.475,-1.869 -3.146,-3.344 -5.034,-4.425 -1.633,-0.925 -3.442,-1.573 -5.389,-1.908 -0.036,-0.006 -0.081,-0.013 -0.133,-0.021 -0.83,-0.139 -1.637,0.351 -1.897,1.152 -0.232,0.716 -0.505,1.41 -0.816,2.083 -0.187,0.396 -0.174,0.858 0.035,1.243 0.208,0.385 0.588,0.648 1.022,0.708 -0.001,0.007 0,0.007 0,0.007 h 0.079 c 0.786,0.099 1.533,0.256 2.261,0.492 2.222,0.708 4.11,2.045 5.624,3.992 1.514,1.947 2.36,4.07 2.498,6.411 0.039,0.747 0.019,1.514 -0.079,2.301 v 0.098 c -0.413,3.205 -1.908,5.821 -4.464,7.807 -2.576,2.026 -5.487,2.832 -8.731,2.419 -3.245,-0.394 -5.88,-1.888 -7.886,-4.464 -2.025,-2.576 -2.832,-5.487 -2.419,-8.731 0,-10e-4 0,-10e-4 0,-10e-4 0.049,-0.454 -0.121,-0.904 -0.458,-1.212 -0.336,-0.308 -0.799,-0.437 -1.247,-0.348 -0.804,0.161 -1.623,0.263 -2.459,0.31 z" style="fill:#74aa00;fill-rule:nonzero" id="path4"/></g><g id="g8"><path d="m 60.265,43.707 c 0.177,-1.475 -0.177,-2.792 -1.101,-3.953 -0.924,-1.18 -2.104,-1.868 -3.579,-2.045 -1.475,-0.177 -2.812,0.197 -3.972,1.121 -1.18,0.905 -1.868,2.084 -2.045,3.559 -0.177,1.475 0.196,2.812 1.121,3.992 0.904,1.161 2.104,1.849 3.578,2.026 1.476,0.177 2.793,-0.177 3.973,-1.101 1.16,-0.925 1.848,-2.124 2.025,-3.599 z" style="fill-rule:nonzero" id="path5"/><path d="m 34.386,16.785 c -1.18,0.905 -1.868,2.105 -2.045,3.599 -0.177,1.455 0.196,2.773 1.121,3.953 0.924,1.18 2.104,1.868 3.579,2.045 1.475,0.177 2.792,-0.197 3.972,-1.121 1.16,-0.924 1.849,-2.104 2.026,-3.579 0.177,-1.475 -0.177,-2.812 -1.101,-3.972 -0.925,-1.18 -2.105,-1.849 -3.58,-2.026 -1.474,-0.197 -2.812,0.177 -3.972,1.101 z" style="fill-rule:nonzero" id="path6"/><path d="m 17.985,31.593 c -1.474,-0.177 -2.792,0.177 -3.972,1.101 -1.18,0.925 -1.849,2.124 -2.026,3.599 -0.177,1.455 0.177,2.773 1.102,3.953 0.924,1.16 2.104,1.848 3.579,2.045 1.475,0.177 2.792,-0.197 3.972,-1.121 1.18,-0.924 1.868,-2.104 2.045,-3.559 0.177,-1.495 -0.196,-2.832 -1.101,-3.992 -0.924,-1.18 -2.124,-1.849 -3.599,-2.026 z" style="fill-rule:nonzero" id="path7"/><path d="m 30.316,62.291 c 0.924,1.18 2.103,1.848 3.579,2.025 1.474,0.177 2.812,-0.177 3.992,-1.101 1.16,-0.924 1.848,-2.124 2.025,-3.599 0.177,-1.475 -0.197,-2.793 -1.101,-3.953 -0.924,-1.18 -2.124,-1.868 -3.599,-2.045 -1.475,-0.177 -2.793,0.197 -3.972,1.121 -1.18,0.905 -1.849,2.084 -2.026,3.559 -0.177,1.475 0.177,2.813 1.102,3.993 z" style="fill-rule:nonzero" id="path8"/></g></g><g id="g14" transform="matrix(1.0015879,0,0,1.0034297,12.646762,-6.5043147)" style="fill:#74aa00;fill-opacity:1"><path id="path12-8" style="fill:#74aa00;fill-opacity:1;stroke-width:1.32497" d="m 69.949472,6.4820816 -3.45118,1.98438 -75.8964796,43.8515594 -3.2285204,1.99219 v 3.99023 87.705079 3.99024 l 3.2265704,1.99218 76.0136696,43.85157 3.38867,1.98632 3.41797,-1.98632 76.140618,-43.85157 3.47071,-1.99218 v -3.99024 -87.705079 -3.99023 L 149.54712,52.318021 73.404542,8.4664616 Z m -0.02735,4.4843794 78.835938,45.5957 v 91.183599 l -78.835938,45.5957 -78.1757796,-45.21289 -0.66016,-0.38281 V 56.562161 Z"/></g><script xmlns=""/></svg>